<svg width="29" height="22" viewBox="0 0 29 22" fill="none" xmlns="http://www.w3.org/2000/svg">
<g clip-path="url(#clip0)">
<path d="M1.91335 21.2308C1.02976 21.2308 0.307678 20.5087 0.307678 19.6251V8.85095C0.307678 7.96735 1.02976 7.24528 1.91335 7.24528H6.1033L6.16981 7.21677L6.26482 7.12176L6.29332 7.05526V2.06722C6.29332 1.18363 7.0154 0.461548 7.89899 0.461548H27.053C27.9366 0.461548 28.6587 1.18363 28.6587 2.06722V12.8414C28.6587 13.725 27.9366 14.447 27.053 14.447H22.9486L22.8821 14.4756L22.7871 14.5706L22.7586 14.6371V19.6251C22.7586 20.5087 22.0365 21.2308 21.1529 21.2308H1.91335ZM1.91335 8.06236C1.4763 8.06236 1.12477 8.4139 1.12477 8.85095V19.6251C1.12477 20.0622 1.4763 20.4137 1.91335 20.4137H21.1529C21.59 20.4137 21.9415 20.0622 21.9415 19.6251V8.85095C21.9415 8.4139 21.59 8.06236 21.1529 8.06236H1.91335ZM7.23392 4.699L7.13891 4.79401L7.11041 4.86052V7.05526L7.13891 7.12176L7.23392 7.21677L7.30043 7.24528H21.1529C22.0365 7.24528 22.7586 7.96735 22.7586 8.85095V13.4399L22.7871 13.5064L22.8821 13.6015L22.9486 13.63H27.053C27.4901 13.63 27.8416 13.2784 27.8416 12.8414V4.86052L27.8131 4.79401L27.7181 4.699L27.6516 4.6705H7.30043L7.23392 4.699ZM7.89899 1.27864C7.46195 1.27864 7.11041 1.63017 7.11041 2.06722V3.66339L7.13891 3.7299L7.23392 3.82491L7.30043 3.85341H27.6516L27.7181 3.82491L27.8131 3.7299L27.8416 3.66339V2.06722C27.8416 1.63017 27.4901 1.27864 27.053 1.27864H7.89899Z" fill="#FE0000"/>
<path d="M13.286 17.839C12.6922 17.839 12.1032 17.6822 11.5901 17.3829L11.5426 17.3687H11.4476L11.4001 17.3829C10.887 17.6822 10.298 17.839 9.6994 17.839C7.82295 17.839 6.29803 16.314 6.29803 14.4376C6.29803 12.5611 7.82295 11.0362 9.6994 11.0362C10.298 11.0362 10.887 11.193 11.4001 11.4923L11.4476 11.5065H11.5426L11.5901 11.4923C12.1032 11.193 12.6922 11.0362 13.286 11.0362C15.1625 11.0362 16.6874 12.5611 16.6874 14.4376C16.6874 16.314 15.1625 17.839 13.286 17.839ZM13.286 11.8533C11.8609 11.8533 10.7018 13.0124 10.7018 14.4376C10.7018 15.8627 11.8609 17.0219 13.286 17.0219C14.7112 17.0219 15.8703 15.8627 15.8703 14.4376C15.8703 13.0124 14.7112 11.8533 13.286 11.8533ZM9.69465 11.8533C8.2695 11.8533 7.11037 13.0124 7.11037 14.4376C7.11037 15.8627 8.2695 17.0219 9.69465 17.0219C9.98918 17.0219 10.2837 16.9744 10.5592 16.8746L10.621 16.8128L10.6638 16.6656L10.6448 16.5801C10.1554 15.9768 9.88467 15.2167 9.88467 14.4423C9.88467 13.668 10.1554 12.9079 10.6448 12.3046L10.6638 12.2191L10.621 12.0718L10.5592 12.0101C10.2837 11.9008 9.98918 11.8533 9.69465 11.8533Z" fill="#FE0000"/>
</g>
<defs>
<clipPath id="clip0">
<rect width="28.351" height="20.7692" fill="white" transform="translate(0.307678 0.461548)"/>
</clipPath>
</defs>
</svg>
