<svg width="54" height="36" viewBox="0 0 54 36" fill="none" xmlns="http://www.w3.org/2000/svg">
<g clip-path="url(#clip0)">
<path d="M44.4198 36C41.4513 36 39.0225 33.5712 39.0225 30.6027C39.0225 30.4138 38.8606 30.1709 38.6717 30.1709H18.1889C18 30.1709 17.8381 30.3328 17.8381 30.5217C17.8381 33.5442 15.4093 35.973 12.4408 35.973C9.47226 35.973 7.04348 33.5442 7.04348 30.5757C7.04348 30.3868 6.88156 30.1439 6.69265 30.1439H1.75412C0.944528 30.1439 0.134933 29.5232 0 28.8486V28.6597V1.51124C0 0.674663 0.944528 0 1.75412 0H36.6477C37.4843 0 38.1589 0.674663 38.1589 1.51124V3.50825C38.1589 3.69715 38.3208 3.85907 38.5097 3.85907H45.3643C47.2804 3.85907 48.8186 5.3973 48.8186 7.31334V8.28486C48.8186 8.52774 48.6297 8.77061 48.3868 8.82459C48.2789 8.85157 48.1979 8.90555 48.1439 8.98651C48.09 9.06747 48.09 9.17541 48.09 9.25637L49.6012 15.2744C49.6282 15.4093 49.7631 15.5172 49.8981 15.5442C52.03 15.8681 53.6492 17.7571 53.6492 19.916V29.6042C53.6492 29.901 53.4063 30.1439 53.1095 30.1439H50.1409C49.952 30.1439 49.7901 30.3058 49.7901 30.4948C49.8171 33.5712 47.3883 36 44.4198 36ZM44.4198 26.2849C42.045 26.2849 40.1289 28.2279 40.1289 30.5757C40.1289 32.9235 42.072 34.8666 44.4198 34.8666C46.7946 34.8666 48.7107 32.9505 48.7107 30.5757C48.7107 28.2009 46.7946 26.2849 44.4198 26.2849ZM12.4408 26.2849C10.066 26.2849 8.14993 28.2279 8.14993 30.5757C8.14993 32.9235 10.093 34.8666 12.4408 34.8666C14.7886 34.8666 16.7316 32.9775 16.7316 30.6027C16.7316 28.2279 14.7886 26.2849 12.4408 26.2849ZM44.4198 25.2054C46.7136 25.2054 48.7646 26.6627 49.5202 28.8486C49.5742 28.9835 49.7092 29.0915 49.8711 29.0915H52.2459C52.4348 29.0915 52.5967 28.9295 52.5967 28.7406V24.7196C52.5967 24.5307 52.4348 24.3688 52.2459 24.3688H51.2204C49.8441 24.3688 48.7376 23.2624 48.7376 21.8861V19.943C48.7376 19.6462 48.9805 19.4033 49.2774 19.4033H52.084C52.1919 19.4033 52.2999 19.3493 52.3808 19.2414C52.4348 19.1604 52.4618 19.0255 52.4348 18.9175C52.003 17.5412 50.7077 16.5967 49.2774 16.5967H38.5637C38.3748 16.5967 38.2129 16.7586 38.2129 16.9475V17.973C38.2129 18.2699 37.97 18.5127 37.6732 18.5127C37.3763 18.5127 37.1334 18.2699 37.1334 17.973V1.51124C37.1334 1.32234 36.9175 1.07946 36.7017 1.07946H1.75412C1.56522 1.07946 1.34933 1.32234 1.34933 1.51124V28.6597C1.34933 28.8486 1.56522 29.0915 1.78111 29.0915H7.01649C7.17841 29.0915 7.31334 28.9835 7.36732 28.8486C8.12294 26.6627 10.1739 25.2054 12.4678 25.2054C14.7616 25.2054 16.8126 26.6627 17.5682 28.8486C17.6222 28.9835 17.7571 29.0915 17.919 29.0915H36.7826C36.9715 29.0915 37.1334 28.9295 37.1334 28.7406V21.8861C37.1334 21.5892 37.3763 21.3463 37.6732 21.3463C37.97 21.3463 38.2129 21.5892 38.2129 21.8861V28.7406C38.2129 28.9295 38.3748 29.0915 38.5637 29.0915H38.9955C39.1574 29.0915 39.2924 28.9835 39.3463 28.8486C40.075 26.6627 42.1259 25.2054 44.4198 25.2054ZM50.1679 20.4828C49.979 20.4828 49.8171 20.6447 49.8171 20.8336V21.8591C49.8171 22.6147 50.4378 23.2624 51.2204 23.2624H52.2459C52.4348 23.2624 52.5967 23.1005 52.5967 22.9115V20.8606C52.5967 20.6717 52.4348 20.5097 52.2459 20.5097H50.1679V20.4828ZM38.5367 8.85157C38.3478 8.85157 38.1859 9.01349 38.1859 9.2024V15.1394C38.1859 15.3283 38.3478 15.4903 38.5367 15.4903H48.09C48.1979 15.4903 48.3059 15.4363 48.3868 15.3553C48.4678 15.2744 48.4678 15.1394 48.4408 15.0315L46.9565 9.09445C46.9026 8.93253 46.7676 8.82459 46.6057 8.82459H38.5367V8.85157ZM38.5367 4.96552C38.3478 4.96552 38.1859 5.12744 38.1859 5.31634V7.36732C38.1859 7.55622 38.3478 7.71814 38.5367 7.71814H47.3883C47.5772 7.71814 47.7391 7.55622 47.7391 7.36732C47.7391 6.01799 46.6867 4.93853 45.3643 4.93853H38.5367V4.96552Z" fill="#E95851"/>
<path d="M44.4198 35.7301C41.5862 35.7301 39.2923 33.4363 39.2923 30.6027C39.2923 30.2789 39.0225 29.9011 38.6716 29.9011H18.1889C17.8381 29.9011 17.5682 30.1979 17.5682 30.5217C17.5682 31.925 17.0285 33.2204 16.0569 34.1919C15.0854 35.1634 13.8171 35.7032 12.4408 35.7032C9.60717 35.7032 7.31331 33.4093 7.31331 30.5757C7.31331 30.2519 7.04345 29.8741 6.69262 29.8741H1.75409C1.07943 29.8741 0.377782 29.3613 0.269836 28.7946V28.6327V1.51125C0.269836 0.836584 1.07943 0.269867 1.75409 0.269867H36.6476C37.3223 0.269867 37.889 0.836584 37.889 1.51125V3.50825C37.889 3.85907 38.1859 4.12894 38.5097 4.12894H45.3643C47.1184 4.12894 48.5487 5.55922 48.5487 7.31335V8.28486C48.5487 8.41979 48.4677 8.52774 48.3328 8.55472C48.1709 8.58171 48.009 8.68966 47.928 8.82459C47.847 8.95952 47.8201 9.14843 47.847 9.31035L49.3583 15.3283C49.4123 15.5712 49.6282 15.7601 49.871 15.8141C51.895 16.1109 53.4063 17.8921 53.4063 19.916V29.6042C53.4063 29.7661 53.2713 29.8741 53.1364 29.8741H50.1679C49.8171 29.8741 49.5472 30.1709 49.5472 30.4948C49.5472 31.8981 49.0075 33.1934 48.036 34.1649C47.0644 35.1904 45.7961 35.7301 44.4198 35.7301ZM44.4198 26.015C41.91 26.015 39.859 28.066 39.859 30.5757C39.859 33.0855 41.91 35.1364 44.4198 35.1364C46.9295 35.1364 48.9805 33.0855 48.9805 30.5757C48.9805 28.066 46.9295 26.015 44.4198 26.015ZM12.4408 26.015C9.93101 26.015 7.88003 28.066 7.88003 30.5757C7.88003 33.0855 9.93101 35.1364 12.4408 35.1364C14.9505 35.1364 17.0015 33.1124 17.0015 30.6027C17.0015 28.066 14.9505 26.015 12.4408 26.015ZM44.4198 25.4753C46.6057 25.4753 48.5487 26.8516 49.2503 28.9295C49.3313 29.1724 49.5742 29.3613 49.844 29.3613H52.2189C52.5697 29.3613 52.8396 29.0645 52.8396 28.7406V24.7196C52.8396 24.3688 52.5427 24.099 52.2189 24.099H51.1934C49.979 24.099 48.9805 23.1005 48.9805 21.8861V19.943C48.9805 19.7811 49.1154 19.6732 49.2503 19.6732H52.0839C52.2728 19.6732 52.4887 19.5652 52.5967 19.4033C52.7046 19.2414 52.7586 19.0255 52.6776 18.8366C52.1919 17.3523 50.8156 16.3268 49.2503 16.3268H38.5367C38.1859 16.3268 37.916 16.6237 37.916 16.9475V17.973C37.916 18.1349 37.7811 18.2429 37.6461 18.2429C37.4842 18.2429 37.3763 18.1079 37.3763 17.973V1.51125C37.3763 1.16042 37.0255 0.809597 36.6746 0.809597H1.75409C1.40327 0.809597 1.07943 1.16042 1.07943 1.51125V28.6597C1.07943 29.0105 1.43026 29.3613 1.78108 29.3613H7.01646C7.28633 29.3613 7.52921 29.1994 7.61017 28.9295C8.3388 26.8516 10.2818 25.4753 12.4408 25.4753C14.6267 25.4753 16.5697 26.8516 17.2713 28.9295C17.3523 29.1724 17.5952 29.3613 17.865 29.3613H36.7286C37.0794 29.3613 37.3493 29.0645 37.3493 28.7406V21.8861C37.3493 21.7241 37.4842 21.6162 37.6192 21.6162C37.7541 21.6162 37.889 21.7511 37.889 21.8861V28.7406C37.889 29.0915 38.1859 29.3613 38.5097 29.3613H38.9415C39.2114 29.3613 39.4542 29.1994 39.5352 28.9295C40.2908 26.8516 42.2339 25.4753 44.4198 25.4753ZM50.1679 20.2129C49.8171 20.2129 49.5472 20.5097 49.5472 20.8336V21.8591C49.5472 22.7766 50.3028 23.5322 51.2204 23.5322H52.2458C52.5967 23.5322 52.8665 23.2354 52.8665 22.9115V20.8606C52.8665 20.5097 52.5697 20.2399 52.2458 20.2399H50.1679V20.2129ZM38.5367 8.58171C38.1859 8.58171 37.916 8.87856 37.916 9.2024V15.1394C37.916 15.4903 38.2129 15.7601 38.5367 15.7601H48.0899C48.2788 15.7601 48.4677 15.6792 48.6027 15.5172C48.7106 15.3553 48.7646 15.1664 48.7106 14.9775L47.2264 9.04048C47.1454 8.77062 46.9025 8.55472 46.6057 8.55472H38.5367V8.58171ZM38.5367 4.69565C38.1859 4.69565 37.916 4.99251 37.916 5.31634V7.36732C37.916 7.71814 38.2129 7.98801 38.5367 7.98801H47.3883C47.7391 7.98801 48.009 7.69116 48.009 7.36732C48.009 5.85607 46.8485 4.66867 45.3643 4.66867H38.5367V4.69565Z" fill="#E95851"/>
<path d="M12.4408 32.114C11.6042 32.114 10.9296 31.4393 10.9296 30.6027C10.9296 29.7661 11.6042 29.0915 12.4408 29.0915C13.2774 29.0915 13.9521 29.7661 13.9521 30.6027C13.9521 31.4393 13.2774 32.114 12.4408 32.114Z" fill="#E95851"/>
<path d="M12.4408 31.8441C11.7661 31.8441 11.1994 31.2774 11.1994 30.6027C11.1994 29.928 11.7661 29.3613 12.4408 29.3613C13.1154 29.3613 13.6822 29.928 13.6822 30.6027C13.6822 31.2774 13.1154 31.8441 12.4408 31.8441Z" fill="#E95851"/>
<path d="M44.4198 32.114C43.5832 32.114 42.9086 31.4393 42.9086 30.6027C42.9086 29.7661 43.5832 29.0915 44.4198 29.0915C45.2564 29.0915 45.9311 29.7661 45.9311 30.6027C45.9311 31.4393 45.2564 32.114 44.4198 32.114Z" fill="#E95851"/>
<path d="M44.4198 31.8441C43.7451 31.8441 43.1784 31.2774 43.1784 30.6027C43.1784 29.928 43.7451 29.3613 44.4198 29.3613C45.0944 29.3613 45.6612 29.928 45.6612 30.6027C45.6612 31.2774 45.0944 31.8441 44.4198 31.8441Z" fill="#E95851"/>
<path d="M15.0767 14.8238V20.9712C14.8826 21.0359 14.6884 20.9712 14.559 20.9712C14.1061 20.9712 13.7178 20.9065 13.2648 20.7771C12.0354 20.3889 11.3235 19.5476 11.1294 18.3182C11.0647 17.9299 11 17.5416 11 17.2181C11 14.565 11 11.9119 11 9.32355V9C11.0647 9 11.0647 9 11.1294 9C11.7118 9 12.2942 9 12.8766 9.06471C13.2001 9.06471 13.5237 9.12942 13.7825 9.25884C14.0413 9.32355 14.2355 9.51768 14.4296 9.64709C16.0473 11.2001 17.7298 12.8179 19.3475 14.3709C19.4122 14.4356 19.4769 14.5003 19.5416 14.565C19.6063 14.5003 19.6064 14.4356 19.6064 14.3709C19.6064 13.7885 19.6064 13.2061 19.6064 12.6237V9.25884V9C20.1887 9 20.7711 9 21.2888 9C21.5476 9 21.8712 9.06471 22.13 9.12942C22.9712 9.32355 23.4242 9.84122 23.5536 10.6824C23.6183 10.9413 23.6183 11.2001 23.6183 11.459C23.6183 12.6237 23.6183 13.7885 23.6183 14.9533C23.6183 16.8945 23.6183 18.9005 23.6183 20.8418C23.6183 20.9065 23.6183 20.9065 23.6183 20.9712H23.5536C22.8418 20.9712 22.1947 20.9065 21.5476 20.7124C21.1594 20.583 20.8358 20.3889 20.577 20.13C19.2181 18.8358 17.8592 17.5416 16.5003 16.2475C16.0473 15.7945 15.5944 15.4062 15.1414 14.9533C15.2061 14.9533 15.1414 14.8886 15.0767 14.8238Z" fill="#E95851"/>
<path d="M32.807 20.9712C32.7423 20.9712 32.6776 20.9712 32.6776 20.9712C31.6423 20.9712 30.6069 20.9712 29.5716 20.9712C29.3127 20.9712 29.0539 20.9065 28.8598 20.8418C28.3421 20.7124 27.9538 20.3889 27.6303 20.0006C26.4008 18.3182 25.1713 16.7004 23.8771 15.018L23.8124 14.9533C24.0713 14.6297 24.2654 14.2415 24.5242 13.9179C25.4302 12.6237 26.4008 11.3942 27.4362 10.1648C27.5009 10.0354 27.695 9.84122 27.8244 9.64709C28.2127 9.25884 28.6656 9.06471 29.1833 9C29.4422 9 29.7657 9 30.0245 9C30.8658 9 31.707 9 32.4835 9H32.7423C31.0599 10.9413 29.3774 12.8826 27.8244 15.018C29.5069 17.024 31.1246 18.9652 32.807 20.9712Z" fill="#E95851"/>
</g>
<defs>
<clipPath id="clip0">
<rect width="53.7032" height="36" fill="white"/>
</clipPath>
</defs>
</svg>
